<?xml version="1.0" encoding="UTF-8"?>
<svg id="Warstwa_1" data-name="Warstwa 1" xmlns="http://www.w3.org/2000/svg" viewBox="0 0 1069.17 170.66">
  <defs>
    <style>
      .cls-1 {
        fill: #173753;
      }

      .cls-1, .cls-2 {
        stroke-width: 0px;
      }

      .cls-2 {
        fill: #aeafb2;
      }
    </style>
  </defs>
  <g>
    <path class="cls-1" d="m491.17,63.35v61.5h26l-.2-61.3-.3-61.2-12.7-.3-12.8-.3v61.6Z"/>
    <path class="cls-1" d="m891.17,63.35v61.5h23.9l.3-29.9.3-29.9,3-4.4c4.6-6.5,12.5-10.2,22.4-10.2s15.3,1.7,20.3,6.2c6.7,6,6.8,6.6,6.8,39.2v29h25v-26.3c0-14.4-.5-29.6-1-33.7-2-15.8-11.7-28.7-25.7-34.6-6.2-2.6-7.9-2.8-19.3-2.9-14.9,0-20.5,1.6-27.4,7.6l-4.6,4.1V1.85h-24v61.5Z"/>
    <path class="cls-1" d="m1007.17,15.35v13.5h-12v21h11.8l.4,25.7c.4,23.7.6,26.2,2.6,31.4,2.8,6.9,7.1,11.5,14.2,14.8,5.2,2.4,6.5,2.6,25.3,2.9l19.7.4v-23.2h-31.2l-2.9-2.9-2.9-2.9v-46.2h37v-21h-36.9l-.3-13.3-.3-13.2-12.2-.3-12.3-.3v13.6Z"/>
    <path class="cls-1" d="m568.37,28.35c-6.8,1.9-10,3.6-13.9,7.5l-3.3,3.2v-10.2h-24v96h24v-28.8c0-25.8.2-29.1,1.9-32.7,2.3-5.1,5.3-7.8,11.6-10.6,6-2.7,16.5-3.1,23.9-1,6.3,1.9,13,8.1,14.5,13.6.7,2.5,1.1,14.7,1.1,31.7v27.8h24.1l-.3-32.8c-.3-31.2-.4-33-2.6-38.2-4.7-11.6-13.4-20-24.7-24.1-7.9-2.8-24.7-3.5-32.3-1.4Z"/>
    <path class="cls-1" d="m667.17,28.45c-17.9,3.9-28,13.6-28,27,0,10.5,3.5,17.3,11.9,22.5,6.2,4,11.5,5.5,31.4,8.8,17.3,3,21,4.4,22.9,8.7,1.5,3.2.4,5.1-4.3,7.9-2.9,1.7-5.2,2-15.4,2-10.8,0-12.5-.3-17-2.5-3.8-1.9-5.5-3.5-7-6.7l-2-4.2-12.8-.1h-12.9l.7,3.2c1,4.8,4.2,11.7,7.1,15.5,13.6,17.8,58.1,21.4,79.5,6.5,14.3-10,14.6-30.2.6-39.8-6.4-4.4-14.8-6.9-33.2-9.9-20.6-3.3-24.5-5-24.5-10.5,0-5.8,6.9-9.2,18.8-9.2,10.8,0,16.6,2.7,19.7,9l2,4.2h24.7l-.7-3.3c-1.2-5.4-6.6-14.7-10.9-18.4-11.7-10.2-32.6-14.6-50.6-10.7Z"/>
    <path class="cls-1" d="m809.67,27.85c-24.5,5.1-36.1,21-35.8,49.1.2,20.9,6.8,34.8,20,42.6,9.3,5.4,24.7,7.9,38.3,6.2,10.1-1.2,16.1-3.7,21.4-8.7l3.8-3.7-.4,8.5c-.9,17.2-9.6,25.1-28.3,25.4-6.8.1-8.8-.3-13-2.5-2.9-1.4-6.3-4.3-8-6.6l-3-4.2h-13.3l-13.2-.1.6,2.7c3.2,14.2,14.3,26.2,28.9,31.4,8.4,2.9,24.5,3.6,34.5,1.5,16-3.4,30.2-13.4,35.8-25.3l2.7-5.8.3-54.8.3-54.7h-24.1v10.2l-3.5-3.1c-4.7-4.1-9.8-6.6-16.3-8-6-1.2-21.7-1.3-27.7-.1Zm32.7,25.2c17.6,7.6,19.9,35.1,3.8,45.3-7.6,4.8-24.2,5.8-33.8,2-5.1-2.1-11.4-9-13-14.3-.7-2.2-1.2-6.7-1.2-10.1,0-13.4,7.4-22.2,21.1-25.1,6.2-1.3,17.6-.2,23.1,2.2Z"/>
    <path class="cls-1" d="m740.17,76.85v48h25V28.85h-25v48Z"/>
    <path class="cls-2" d="m740.17,14v7.69h25V6.31h-25v7.69Z"/>
  </g>
  <g>
    <path class="cls-2" d="m41.92.79C18.52,3.89,3.32,18.49,4.72,36.49c.9,11.6,8.3,19.8,22.2,24.7,8.1,2.9,12.1,3.7,34.5,7,26.7,4,36.4,7.9,40.1,15.9,2.3,5.1,2.4,8.8.4,15.3-3.6,12.2-17.1,17.4-45.3,17.4-21.3,0-33.3-3.2-40.4-10.7-2.3-2.4-6.2-9.8-8.2-15.6-.4-1.4-1.4-1.8-4.3-1.5-3.6.3-3.8.5-3.7,3.5.4,8.5,10.6,22.3,20.2,27.6,2.7,1.5,8.9,3.6,13.8,4.8,4.64,1.01,10.9,2.1,25.9,1.6,24-.7,35-4.2,43.9-13.7,6.5-6.9,8-10.8,8-20.5-.1-9.5-2-14.1-8.4-19.9-7.6-6.8-18.2-10.2-45.3-14.1-29.7-4.4-38.4-7.6-42.5-15.5-4.3-8.2-1.5-19.6,6-25.1,7.6-5.5,15.6-7.3,31.8-7.4,15.5,0,22.2,1.1,30.1,5.1,6,3,11.3,9.2,12.9,15.2.7,2.6,1.7,5.3,2.3,5.9.9,1.3,5.04,3.75,7.9.7.3-.3,0-2.9-.6-5.7-2.3-9.9-7.1-16.9-15.2-22.2C79.12,1.49,60.92-1.61,41.92.79Z"/>
    <path class="cls-2" d="m134.12,2.39c-.4.4-.7,6.3-.7,13v8.47c0,2.14-1.69,3.89-3.83,3.98l-3.87.15-3.97.15c-2.14.08-3.83,1.84-3.83,3.98v.34c0,2.14,1.69,3.9,3.83,3.98l3.97.15,3.87.15c2.14.08,3.83,1.84,3.83,3.98v30.97c0,39.3.4,42.7,6.4,47.9,5.7,5,9.1,5.6,31.6,5.6l16.5.08c2.21.01,4-1.77,4-3.98h0v-.14c0-2.15-1.71-3.91-3.86-3.98l-16.14-.48c-22.4-.6-25.4-1.4-27.4-7-.7-2.1-1.1-15.1-1.1-38v-30.95c0-2.19,1.76-3.96,3.95-3.98l20.35-.17,20.27-.25c2.18-.03,3.93-1.8,3.93-3.98v-.14c0-2.18-1.75-3.95-3.93-3.98l-20.27-.25-20.34-.17c-2.15-.02-3.9-1.74-3.95-3.89l-.21-8.94-.21-9.09c-.05-2.05-1.64-3.72-3.68-3.88l-.4-.03c-2.3-.2-4.4,0-4.8.4Z"/>
    <path class="cls-2" d="m406.92,2.99c-.3.7-.4,28.5-.3,61.8l.3,60.5h9l.3-12.9.3-12.8,9-10.2c5-5.5,9.4-10.2,9.8-10.4.4-.1,9.2,10.3,19.5,23.3l18.8,23.5h4.3c2.4,0,4.6-.4,4.9-.8.3-.5-8.5-12.1-19.6-25.8-11-13.7-20.5-25.4-21-26.1-.7-.8,4.8-7.6,18.1-22.4,10.4-11.7,18.8-21.6,18.5-22.1-.3-.4-2.4-.8-4.8-.8h-4.2l-26.5,29.6-26.4,29.6-.5-42.4-.5-42.3-4.3-.3c-2.8-.2-4.4.1-4.7,1Z"/>
    <path class="cls-2" d="m233.82,26.69c-7.5,1.2-12.2,2.9-18.5,6.7-14,8.4-20.9,22.6-20.9,42.9,0,17,4.9,29.5,15.1,39,8.8,8.1,19.4,11.5,35.8,11.5,26.6,0,44.2-14.7,48.2-40.1,1.9-12.2-.3-27.4-5.3-37.3-2.7-5.2-10.3-13.2-15.6-16.3-9.5-5.6-26.4-8.3-38.8-6.4Zm28.2,11.5c14.1,4.3,21.1,15.3,22.1,34.6,1.2,21.5-5.6,35.7-19.6,41.1-4,1.6-8.7,2.3-16.4,2.7-22.9,1-34.9-4.7-40.8-19.5-2.1-5.2-2.4-7.4-2.4-20.8s.3-15.7,2.3-20.6c3.8-9.6,12.5-16.4,24.4-18.9,6-1.3,24.3-.4,30.4,1.4Z"/>
    <path class="cls-2" d="m340.42,26.79c-19.7,3.2-32.6,14.7-37.5,33.7-1.8,6.7-2,22.9-.4,30.5,1.9,9,6.6,17.3,13.5,23.7,9.2,8.7,19.5,12.1,36.3,12.1,24.1,0,41.1-12.1,46.7-33.2.7-2.9,1-5.6.5-6.1s-2.6-.7-4.7-.5c-3.7.3-3.8.5-5.4,5.8-2.4,7.9-4.3,11.1-9.3,15.7-7.1,6.5-15.4,8.6-31.5,8.1-11.3-.4-13.4-.7-19-3.3-11.3-5.1-16.3-13.2-18.2-29.5-2-16.7,2.5-33.1,10.8-40,6.5-5.4,14.9-7.5,29.2-7.4,10.1.1,13.6.5,18.2,2.2,10.7,3.9,16.2,10,19.7,22,1.7,5.5,1.8,5.7,5.5,6,2.1.2,4.3-.1,4.7-.5,1.4-1.4-2.5-13.6-6-19.1-8.4-13.2-20.6-19.6-38.9-20.6-4.8-.3-11.2-.1-14.2.4Z"/>
  </g>
</svg>